<svg width="61" height="31" viewBox="0 0 61 31" fill="none" xmlns="http://www.w3.org/2000/svg">
<g clip-path="url(#clip0_228_5957)">
<path d="M54.4146 1.725C57.3429 6.80452 59.0458 12.7416 59.6835 18.5065C60.0305 21.6582 60.7005 26.1664 58.4635 28.264C55.3725 31.1604 57.0388 26.8358 37.1306 22.8207C35.3347 22.4594 36.3254 19.3068 37.9288 19.4122C41.2837 19.633 44.6226 20.0135 47.9455 20.5539C37.4699 11.1768 23.5449 9.94122 11.2492 15.1599C9.67552 15.8216 4.03132 18.7972 2.46753 20.093C0.58484 21.6561 -0.983222 18.8396 1.89151 16.7047C7.8918 9.5694 29.9304 -1.76805 48.6457 11.4047C53.0671 14.5167 52.9063 15.6498 52.3243 13.7807C51.7076 11.7976 50.3715 8.33154 49.4987 6.40146C47.8666 2.79354 52.6143 -1.38901 54.4146 1.725Z" fill="#E8E8E8"/>
</g>
<defs>
<clipPath id="clip0_228_5957">
<rect width="60.3297" height="29.9566" fill="white" transform="translate(0 0.512695)"/>
</clipPath>
</defs>
</svg>
