<svg xmlns="http://www.w3.org/2000/svg" xmlns:xlink="http://www.w3.org/1999/xlink" width="215" zoomAndPan="magnify" viewBox="0 0 161.25 30.000001" height="40" preserveAspectRatio="xMidYMid meet" version="1.0"><defs><g/><clipPath id="a46c940a09"><path d="M 2.238281 0 L 136 0 L 136 29.03125 L 2.238281 29.03125 Z M 2.238281 0 " clip-rule="nonzero"/></clipPath><clipPath id="fe4a1cbbd9"><path d="M 0.238281 0.00390625 L 27.867188 0.00390625 L 27.867188 28.515625 L 0.238281 28.515625 Z M 0.238281 0.00390625 " clip-rule="nonzero"/></clipPath><clipPath id="94244920e1"><path d="M 24.566406 14.210938 L 28.582031 14.210938 L 28.582031 24.085938 L 24.566406 24.085938 Z M 24.566406 14.210938 " clip-rule="nonzero"/></clipPath><clipPath id="0e17715827"><rect x="0" width="134" y="0" height="30"/></clipPath></defs><g clip-path="url(#a46c940a09)"><g transform="matrix(1, 0, 0, 1, 2, 0.000000000000005692)"><g clip-path="url(#0e17715827)"><g fill="#212529" fill-opacity="1"><g transform="translate(27.817183, 22.18794)"><g><path d="M 8.484375 -13.765625 C 10.128906 -13.765625 11.457031 -13.265625 12.46875 -12.265625 C 13.488281 -11.273438 14 -9.84375 14 -7.96875 L 14 0 L 11.78125 0 L 11.78125 -7.640625 C 11.78125 -8.992188 11.441406 -10.023438 10.765625 -10.734375 C 10.097656 -11.453125 9.179688 -11.8125 8.015625 -11.8125 C 6.828125 -11.8125 5.882812 -11.441406 5.1875 -10.703125 C 4.488281 -9.960938 4.140625 -8.882812 4.140625 -7.46875 L 4.140625 0 L 1.90625 0 L 1.90625 -13.515625 L 4.140625 -13.515625 L 4.140625 -11.59375 C 4.585938 -12.28125 5.191406 -12.8125 5.953125 -13.1875 C 6.710938 -13.570312 7.554688 -13.765625 8.484375 -13.765625 Z M 8.484375 -13.765625 "/></g></g></g><g fill="#212529" fill-opacity="1"><g transform="translate(43.595226, 22.18794)"><g><path d="M 18.140625 -13.765625 C 19.191406 -13.765625 20.128906 -13.546875 20.953125 -13.109375 C 21.773438 -12.671875 22.425781 -12.015625 22.90625 -11.140625 C 23.382812 -10.273438 23.625 -9.21875 23.625 -7.96875 L 23.625 0 L 21.40625 0 L 21.40625 -7.640625 C 21.40625 -8.992188 21.070312 -10.023438 20.40625 -10.734375 C 19.738281 -11.453125 18.835938 -11.8125 17.703125 -11.8125 C 16.535156 -11.8125 15.601562 -11.4375 14.90625 -10.6875 C 14.21875 -9.9375 13.875 -8.859375 13.875 -7.453125 L 13.875 0 L 11.65625 0 L 11.65625 -7.640625 C 11.65625 -8.992188 11.320312 -10.023438 10.65625 -10.734375 C 10 -11.453125 9.101562 -11.8125 7.96875 -11.8125 C 6.800781 -11.8125 5.867188 -11.4375 5.171875 -10.6875 C 4.484375 -9.9375 4.140625 -8.859375 4.140625 -7.453125 L 4.140625 0 L 1.90625 0 L 1.90625 -13.515625 L 4.140625 -13.515625 L 4.140625 -11.5625 C 4.585938 -12.269531 5.179688 -12.8125 5.921875 -13.1875 C 6.671875 -13.570312 7.5 -13.765625 8.40625 -13.765625 C 9.539062 -13.765625 10.539062 -13.507812 11.40625 -13 C 12.28125 -12.488281 12.929688 -11.738281 13.359375 -10.75 C 13.742188 -11.707031 14.367188 -12.445312 15.234375 -12.96875 C 16.109375 -13.5 17.078125 -13.765625 18.140625 -13.765625 Z M 18.140625 -13.765625 "/></g></g></g><g fill="#212529" fill-opacity="1"><g transform="translate(68.988011, 22.18794)"><g><path d="M 1.0625 -6.8125 C 1.0625 -8.1875 1.335938 -9.394531 1.890625 -10.4375 C 2.453125 -11.476562 3.222656 -12.285156 4.203125 -12.859375 C 5.179688 -13.441406 6.269531 -13.734375 7.46875 -13.734375 C 8.65625 -13.734375 9.679688 -13.476562 10.546875 -12.96875 C 11.421875 -12.457031 12.070312 -11.816406 12.5 -11.046875 L 12.5 -13.515625 L 14.765625 -13.515625 L 14.765625 0 L 12.5 0 L 12.5 -2.515625 C 12.050781 -1.722656 11.390625 -1.066406 10.515625 -0.546875 C 9.640625 -0.0351562 8.617188 0.21875 7.453125 0.21875 C 6.242188 0.21875 5.15625 -0.0703125 4.1875 -0.65625 C 3.21875 -1.25 2.453125 -2.082031 1.890625 -3.15625 C 1.335938 -4.226562 1.0625 -5.445312 1.0625 -6.8125 Z M 12.5 -6.78125 C 12.5 -7.800781 12.289062 -8.6875 11.875 -9.4375 C 11.46875 -10.195312 10.914062 -10.773438 10.21875 -11.171875 C 9.519531 -11.578125 8.753906 -11.78125 7.921875 -11.78125 C 7.078125 -11.78125 6.3125 -11.582031 5.625 -11.1875 C 4.9375 -10.800781 4.382812 -10.226562 3.96875 -9.46875 C 3.5625 -8.707031 3.359375 -7.820312 3.359375 -6.8125 C 3.359375 -5.769531 3.5625 -4.863281 3.96875 -4.09375 C 4.382812 -3.332031 4.9375 -2.75 5.625 -2.34375 C 6.3125 -1.945312 7.078125 -1.75 7.921875 -1.75 C 8.753906 -1.75 9.519531 -1.945312 10.21875 -2.34375 C 10.914062 -2.75 11.46875 -3.332031 11.875 -4.09375 C 12.289062 -4.863281 12.5 -5.757812 12.5 -6.78125 Z M 12.5 -6.78125 "/></g></g></g><g fill="#212529" fill-opacity="1"><g transform="translate(85.653569, 22.18794)"><g><path d="M 4.140625 -11.3125 C 4.535156 -12.082031 5.097656 -12.679688 5.828125 -13.109375 C 6.554688 -13.546875 7.445312 -13.765625 8.5 -13.765625 L 8.5 -11.4375 L 7.921875 -11.4375 C 5.398438 -11.4375 4.140625 -10.070312 4.140625 -7.34375 L 4.140625 0 L 1.90625 0 L 1.90625 -13.515625 L 4.140625 -13.515625 Z M 4.140625 -11.3125 "/></g></g></g><g fill="#212529" fill-opacity="1"><g transform="translate(94.849217, 22.18794)"><g><path d="M 4.140625 -11 C 4.597656 -11.800781 5.269531 -12.457031 6.15625 -12.96875 C 7.050781 -13.476562 8.066406 -13.734375 9.203125 -13.734375 C 10.410156 -13.734375 11.5 -13.441406 12.46875 -12.859375 C 13.445312 -12.285156 14.210938 -11.476562 14.765625 -10.4375 C 15.328125 -9.394531 15.609375 -8.1875 15.609375 -6.8125 C 15.609375 -5.445312 15.328125 -4.226562 14.765625 -3.15625 C 14.210938 -2.082031 13.445312 -1.25 12.46875 -0.65625 C 11.488281 -0.0703125 10.398438 0.21875 9.203125 0.21875 C 8.035156 0.21875 7.007812 -0.0351562 6.125 -0.546875 C 5.25 -1.054688 4.585938 -1.703125 4.140625 -2.484375 L 4.140625 0 L 1.90625 0 L 1.90625 -18.25 L 4.140625 -18.25 Z M 13.3125 -6.8125 C 13.3125 -7.820312 13.101562 -8.707031 12.6875 -9.46875 C 12.28125 -10.226562 11.726562 -10.800781 11.03125 -11.1875 C 10.332031 -11.582031 9.566406 -11.78125 8.734375 -11.78125 C 7.910156 -11.78125 7.148438 -11.578125 6.453125 -11.171875 C 5.753906 -10.773438 5.191406 -10.191406 4.765625 -9.421875 C 4.347656 -8.660156 4.140625 -7.78125 4.140625 -6.78125 C 4.140625 -5.757812 4.347656 -4.863281 4.765625 -4.09375 C 5.191406 -3.332031 5.753906 -2.75 6.453125 -2.34375 C 7.148438 -1.945312 7.910156 -1.75 8.734375 -1.75 C 9.566406 -1.75 10.332031 -1.945312 11.03125 -2.34375 C 11.726562 -2.75 12.28125 -3.332031 12.6875 -4.09375 C 13.101562 -4.863281 13.3125 -5.769531 13.3125 -6.8125 Z M 13.3125 -6.8125 "/></g></g></g><g fill="#212529" fill-opacity="1"><g transform="translate(111.514776, 22.18794)"><g><path d="M 4.140625 -18.25 L 4.140625 0 L 1.90625 0 L 1.90625 -18.25 Z M 4.140625 -18.25 "/></g></g></g><g fill="#212529" fill-opacity="1"><g transform="translate(117.579454, 22.18794)"><g><path d="M 14.234375 -7.28125 C 14.234375 -6.84375 14.207031 -6.390625 14.15625 -5.921875 L 3.359375 -5.921875 C 3.429688 -4.585938 3.882812 -3.546875 4.71875 -2.796875 C 5.550781 -2.046875 6.554688 -1.671875 7.734375 -1.671875 C 8.710938 -1.671875 9.523438 -1.894531 10.171875 -2.34375 C 10.816406 -2.800781 11.273438 -3.410156 11.546875 -4.171875 L 13.953125 -4.171875 C 13.585938 -2.867188 12.863281 -1.8125 11.78125 -1 C 10.695312 -0.1875 9.347656 0.21875 7.734375 0.21875 C 6.453125 0.21875 5.304688 -0.0664062 4.296875 -0.640625 C 3.285156 -1.210938 2.492188 -2.03125 1.921875 -3.09375 C 1.347656 -4.15625 1.0625 -5.382812 1.0625 -6.78125 C 1.0625 -8.175781 1.335938 -9.398438 1.890625 -10.453125 C 2.453125 -11.503906 3.238281 -12.3125 4.25 -12.875 C 5.257812 -13.445312 6.421875 -13.734375 7.734375 -13.734375 C 9.023438 -13.734375 10.160156 -13.453125 11.140625 -12.890625 C 12.128906 -12.335938 12.890625 -11.570312 13.421875 -10.59375 C 13.960938 -9.613281 14.234375 -8.507812 14.234375 -7.28125 Z M 11.90625 -7.734375 C 11.90625 -8.597656 11.71875 -9.335938 11.34375 -9.953125 C 10.96875 -10.566406 10.453125 -11.03125 9.796875 -11.34375 C 9.148438 -11.664062 8.429688 -11.828125 7.640625 -11.828125 C 6.503906 -11.828125 5.535156 -11.46875 4.734375 -10.75 C 3.941406 -10.03125 3.488281 -9.023438 3.375 -7.734375 Z M 11.90625 -7.734375 "/></g></g></g><g clip-path="url(#fe4a1cbbd9)"><path fill="#00b7ed" d="M 21.820312 26.023438 C 21.691406 26.101562 21.5625 26.152344 21.4375 26.207031 C 21.316406 26.253906 21.195312 26.304688 21.074219 26.351562 L 21.476562 26.117188 C 21.542969 26.078125 21.613281 26.039062 21.679688 25.996094 L 21.875 25.871094 C 22.046875 25.761719 22.222656 25.660156 22.382812 25.550781 C 22.421875 25.527344 22.46875 25.546875 22.464844 25.550781 C 22.261719 25.722656 22.027344 25.902344 21.820312 26.023438 Z M 20.734375 26.738281 C 20.691406 26.773438 20.644531 26.8125 20.589844 26.851562 C 20.535156 26.890625 20.46875 26.929688 20.398438 26.96875 C 20.328125 27.011719 20.25 27.054688 20.160156 27.101562 C 20.070312 27.144531 19.972656 27.195312 19.859375 27.238281 L 19.402344 27.421875 C 19.246094 27.480469 19.089844 27.53125 18.933594 27.585938 L 18.703125 27.667969 C 18.625 27.691406 18.542969 27.714844 18.464844 27.738281 C 18.304688 27.785156 18.148438 27.832031 17.988281 27.875 C 17.667969 27.949219 17.347656 28.03125 17.023438 28.082031 L 16.78125 28.125 L 16.660156 28.148438 C 16.621094 28.152344 16.578125 28.15625 16.539062 28.164062 C 16.375 28.183594 16.210938 28.203125 16.050781 28.222656 C 15.074219 28.324219 14.097656 28.292969 13.144531 28.167969 C 13.082031 28.160156 13.027344 28.148438 12.96875 28.136719 C 12.914062 28.121094 12.859375 28.109375 12.808594 28.09375 C 12.703125 28.0625 12.601562 28.03125 12.492188 28.003906 C 12.605469 27.996094 12.710938 27.984375 12.824219 27.976562 C 12.878906 27.972656 12.933594 27.96875 12.992188 27.96875 C 13.050781 27.964844 13.113281 27.964844 13.179688 27.964844 C 13.371094 27.96875 13.578125 27.980469 13.789062 27.992188 C 14 27.996094 14.207031 28.003906 14.398438 28.015625 L 14.507812 28.023438 L 14.617188 28.027344 L 14.835938 28.03125 C 14.980469 28.03125 15.125 28.035156 15.269531 28.03125 C 15.414062 28.023438 15.558594 28.019531 15.707031 28.011719 L 15.921875 28 L 16.140625 27.976562 L 16.574219 27.925781 C 16.71875 27.90625 16.859375 27.878906 17.003906 27.855469 C 17.292969 27.8125 17.574219 27.738281 17.859375 27.671875 L 17.964844 27.648438 L 18.070312 27.617188 L 18.277344 27.554688 L 18.488281 27.492188 C 18.558594 27.472656 18.628906 27.453125 18.695312 27.429688 C 18.96875 27.328125 19.246094 27.238281 19.511719 27.121094 C 19.644531 27.066406 19.78125 27.011719 19.914062 26.949219 L 20.304688 26.761719 C 20.371094 26.730469 20.4375 26.699219 20.5 26.667969 L 20.691406 26.5625 L 21.0625 26.359375 C 20.980469 26.476562 20.898438 26.59375 20.734375 26.738281 Z M 16.734375 27.195312 C 16.785156 27.136719 16.960938 27.066406 17.164062 26.953125 C 17.414062 26.964844 17.5625 26.972656 17.707031 26.980469 C 17.511719 27.054688 17.328125 27.136719 17.105469 27.199219 C 17.023438 27.21875 16.714844 27.214844 16.734375 27.195312 Z M 19.101562 26.925781 C 19.261719 26.847656 19.402344 26.773438 19.554688 26.710938 C 19.597656 26.691406 19.707031 26.671875 19.800781 26.660156 C 19.890625 26.648438 19.96875 26.648438 19.953125 26.675781 C 19.945312 26.691406 19.921875 26.714844 19.886719 26.742188 C 19.851562 26.773438 19.804688 26.804688 19.753906 26.835938 C 19.648438 26.898438 19.523438 26.964844 19.414062 27.007812 C 19.222656 27.09375 18.972656 27.109375 18.527344 27.1875 C 18.757812 27.085938 18.941406 27 19.101562 26.925781 Z M 10.289062 27.652344 L 10.085938 27.558594 L 10.34375 27.632812 C 10.324219 27.640625 10.308594 27.644531 10.289062 27.652344 Z M 5.558594 22.941406 C 5.515625 22.894531 5.488281 22.84375 5.457031 22.796875 L 5.617188 22.929688 C 5.648438 22.976562 5.679688 23.027344 5.714844 23.074219 C 5.660156 23.03125 5.601562 22.988281 5.558594 22.941406 Z M 5.269531 24.832031 C 5.210938 24.789062 5.15625 24.75 5.109375 24.707031 C 5.082031 24.6875 5.058594 24.667969 5.035156 24.648438 C 5.015625 24.628906 4.996094 24.609375 4.976562 24.585938 C 4.886719 24.492188 4.820312 24.402344 4.757812 24.3125 C 4.730469 24.269531 4.703125 24.222656 4.671875 24.179688 C 4.644531 24.136719 4.617188 24.09375 4.585938 24.046875 L 4.261719 23.726562 L 4.554688 24.007812 L 4.644531 24.09375 L 4.738281 24.175781 C 4.800781 24.230469 4.863281 24.285156 4.925781 24.339844 C 5.046875 24.445312 5.164062 24.554688 5.273438 24.652344 C 5.425781 24.792969 5.496094 24.941406 5.609375 25.082031 C 5.5 25 5.382812 24.914062 5.269531 24.832031 Z M 3.355469 19.820312 C 3.339844 19.859375 3.257812 19.816406 3.175781 19.753906 C 3.132812 19.722656 3.09375 19.6875 3.0625 19.648438 C 3.03125 19.613281 3.007812 19.582031 2.996094 19.5625 C 2.949219 19.445312 2.898438 19.332031 2.851562 19.226562 C 2.824219 19.175781 2.804688 19.121094 2.78125 19.070312 C 2.757812 19.019531 2.734375 18.96875 2.714844 18.921875 C 2.667969 18.820312 2.625 18.726562 2.578125 18.636719 C 2.535156 18.542969 2.496094 18.453125 2.453125 18.367188 C 2.410156 18.277344 2.371094 18.1875 2.328125 18.101562 L 2.296875 18.035156 L 2.269531 17.96875 C 2.25 17.925781 2.234375 17.882812 2.214844 17.835938 C 2.175781 17.746094 2.140625 17.65625 2.105469 17.5625 C 2.085938 17.515625 2.066406 17.46875 2.050781 17.421875 C 2.035156 17.371094 2.019531 17.324219 2.003906 17.273438 C 1.957031 17.117188 1.921875 16.753906 1.945312 16.632812 C 1.976562 16.433594 2.078125 16.445312 2.089844 16.207031 C 2.09375 16.132812 2.101562 16.074219 2.109375 16.03125 C 2.121094 15.984375 2.128906 15.957031 2.136719 15.9375 C 2.15625 15.898438 2.175781 15.910156 2.199219 15.957031 C 2.207031 15.980469 2.21875 16.011719 2.230469 16.050781 C 2.242188 16.089844 2.253906 16.136719 2.265625 16.1875 C 2.292969 16.289062 2.324219 16.417969 2.351562 16.550781 C 2.363281 16.609375 2.375 16.667969 2.386719 16.726562 C 2.402344 16.785156 2.414062 16.839844 2.429688 16.898438 C 2.457031 17.007812 2.480469 17.117188 2.503906 17.214844 C 2.523438 17.3125 2.546875 17.398438 2.566406 17.46875 C 2.585938 17.539062 2.601562 17.59375 2.609375 17.625 C 2.636719 17.710938 2.664062 17.796875 2.6875 17.875 C 2.714844 17.953125 2.746094 18.027344 2.769531 18.09375 C 2.824219 18.234375 2.871094 18.355469 2.914062 18.46875 C 3.007812 18.6875 3.082031 18.863281 3.136719 19.03125 C 3.195312 19.179688 3.253906 19.359375 3.296875 19.511719 C 3.304688 19.550781 3.316406 19.585938 3.324219 19.621094 C 3.332031 19.652344 3.339844 19.683594 3.347656 19.710938 C 3.359375 19.765625 3.363281 19.804688 3.355469 19.820312 Z M 2.300781 21.242188 L 2.203125 21.015625 L 2.347656 21.238281 Z M 1.898438 14.96875 C 1.875 15.296875 1.824219 15.492188 1.71875 15.292969 C 1.660156 15.1875 1.613281 15.039062 1.585938 14.867188 C 1.5625 14.695312 1.550781 14.492188 1.550781 14.28125 C 1.554688 14.070312 1.578125 13.84375 1.601562 13.621094 C 1.628906 13.398438 1.671875 13.175781 1.710938 12.964844 C 1.757812 12.761719 1.808594 12.527344 1.851562 12.285156 C 1.878906 12.164062 1.902344 12.042969 1.929688 11.921875 C 1.953125 11.796875 1.972656 11.675781 2 11.5625 C 2.34375 9.890625 3.027344 8.289062 4 6.878906 C 4.96875 5.472656 6.222656 4.257812 7.664062 3.328125 C 7.71875 3.292969 7.773438 3.257812 7.828125 3.222656 C 7.886719 3.1875 7.949219 3.148438 8.007812 3.113281 C 8.128906 3.039062 8.253906 2.964844 8.367188 2.890625 C 8.605469 2.757812 8.804688 2.632812 8.882812 2.558594 C 9.050781 2.410156 9.207031 2.289062 9.359375 2.195312 C 9.507812 2.101562 9.65625 2.035156 9.796875 1.988281 C 9.867188 1.964844 9.933594 1.941406 10.003906 1.929688 C 10.074219 1.914062 10.144531 1.90625 10.214844 1.902344 C 10.355469 1.890625 10.492188 1.894531 10.640625 1.90625 C 10.722656 1.917969 10.90625 1.894531 11.078125 1.867188 C 11.167969 1.859375 11.253906 1.84375 11.324219 1.839844 C 11.398438 1.835938 11.457031 1.839844 11.488281 1.847656 C 11.726562 1.921875 11.78125 2.054688 11.910156 2.160156 L 11.417969 2.289062 L 11.253906 2.34375 C 11.039062 2.410156 10.824219 2.472656 10.613281 2.550781 C 10.542969 2.574219 10.476562 2.59375 10.40625 2.613281 C 10.335938 2.636719 10.261719 2.65625 10.1875 2.679688 C 10.035156 2.730469 9.867188 2.78125 9.671875 2.847656 C 9.539062 2.894531 9.402344 2.964844 9.257812 3.039062 C 9.222656 3.058594 9.183594 3.078125 9.148438 3.097656 C 9.113281 3.117188 9.074219 3.140625 9.039062 3.164062 C 8.964844 3.207031 8.890625 3.25 8.8125 3.296875 C 8.738281 3.34375 8.65625 3.382812 8.582031 3.429688 C 8.503906 3.476562 8.421875 3.519531 8.339844 3.558594 C 8.261719 3.601562 8.175781 3.640625 8.09375 3.671875 C 8.007812 3.710938 7.925781 3.742188 7.835938 3.769531 C 7.804688 3.777344 7.730469 3.828125 7.632812 3.898438 C 7.609375 3.914062 7.582031 3.933594 7.558594 3.953125 C 7.53125 3.976562 7.503906 4 7.472656 4.023438 C 7.414062 4.070312 7.351562 4.125 7.289062 4.179688 C 7.222656 4.234375 7.15625 4.289062 7.085938 4.347656 C 7.019531 4.410156 6.953125 4.46875 6.886719 4.53125 C 6.820312 4.589844 6.753906 4.648438 6.691406 4.703125 C 6.628906 4.757812 6.570312 4.8125 6.515625 4.859375 C 5.847656 5.429688 5.238281 6.078125 4.703125 6.773438 C 4.632812 6.859375 4.570312 6.949219 4.503906 7.039062 C 4.441406 7.125 4.378906 7.214844 4.3125 7.304688 C 4.1875 7.484375 4.070312 7.667969 3.949219 7.847656 C 3.894531 7.941406 3.839844 8.035156 3.78125 8.128906 L 3.699219 8.265625 C 3.667969 8.3125 3.640625 8.359375 3.617188 8.40625 C 3.5625 8.5 3.511719 8.59375 3.460938 8.6875 C 3.40625 8.785156 3.355469 8.875 3.308594 8.972656 C 3.246094 9.09375 3.1875 9.214844 3.128906 9.332031 C 3.113281 9.363281 3.101562 9.390625 3.085938 9.421875 L 3.046875 9.511719 C 3.023438 9.574219 2.996094 9.632812 2.972656 9.695312 C 2.945312 9.753906 2.921875 9.816406 2.894531 9.875 L 2.824219 10.054688 C 2.78125 10.179688 2.738281 10.300781 2.699219 10.421875 C 2.652344 10.542969 2.621094 10.667969 2.585938 10.792969 C 2.550781 10.914062 2.511719 11.039062 2.480469 11.164062 C 2.453125 11.292969 2.425781 11.417969 2.394531 11.546875 C 2.382812 11.609375 2.367188 11.675781 2.351562 11.738281 C 2.34375 11.804688 2.332031 11.867188 2.320312 11.933594 C 2.308594 12.011719 2.292969 12.089844 2.277344 12.171875 C 2.265625 12.25 2.242188 12.328125 2.234375 12.410156 C 2.207031 12.570312 2.175781 12.734375 2.148438 12.894531 C 2.128906 12.972656 2.121094 13.054688 2.109375 13.136719 C 2.09375 13.214844 2.082031 13.296875 2.070312 13.375 C 2.058594 13.453125 2.042969 13.53125 2.03125 13.609375 C 2.023438 13.6875 2.015625 13.765625 2.003906 13.839844 C 1.957031 14.179688 1.933594 14.640625 1.898438 14.96875 Z M 2.976562 8.035156 C 3.003906 7.96875 3.035156 7.90625 3.066406 7.84375 C 3.128906 7.714844 3.195312 7.589844 3.265625 7.472656 C 3.367188 7.308594 3.480469 7.148438 3.589844 6.992188 C 3.644531 6.914062 3.703125 6.839844 3.761719 6.761719 L 3.941406 6.535156 C 3.855469 6.671875 3.773438 6.8125 3.6875 6.953125 C 3.609375 7.101562 3.523438 7.257812 3.429688 7.425781 C 3.378906 7.488281 3.335938 7.558594 3.289062 7.625 C 3.242188 7.691406 3.199219 7.757812 3.152344 7.824219 C 3.105469 7.890625 3.058594 7.957031 3.015625 8.023438 L 2.886719 8.226562 C 2.917969 8.164062 2.945312 8.097656 2.976562 8.035156 Z M 4.921875 4.765625 C 4.972656 4.714844 5.027344 4.683594 5.078125 4.648438 L 5.003906 4.730469 L 4.933594 4.820312 L 4.785156 4.9375 C 4.828125 4.878906 4.875 4.816406 4.921875 4.765625 Z M 6.628906 3.789062 C 6.632812 3.785156 6.660156 3.792969 6.675781 3.796875 C 6.539062 3.910156 6.402344 4.023438 6.265625 4.136719 C 6.261719 4.140625 6.230469 4.132812 6.210938 4.128906 C 6.347656 4.015625 6.488281 3.902344 6.628906 3.789062 Z M 6.8125 2.578125 L 7.203125 2.332031 C 7.265625 2.289062 7.332031 2.253906 7.398438 2.21875 L 7.601562 2.105469 C 7.867188 1.953125 8.144531 1.824219 8.421875 1.691406 C 8.410156 1.738281 8.46875 1.761719 8.378906 1.832031 C 8.273438 1.921875 8.15625 2 8.035156 2.074219 L 7.945312 2.128906 L 7.851562 2.1875 C 7.792969 2.222656 7.726562 2.261719 7.664062 2.296875 C 7.601562 2.332031 7.539062 2.363281 7.472656 2.398438 C 7.40625 2.429688 7.339844 2.460938 7.277344 2.496094 C 7.148438 2.566406 7.015625 2.632812 6.886719 2.695312 C 6.8125 2.734375 6.761719 2.738281 6.703125 2.761719 C 6.734375 2.699219 6.761719 2.609375 6.8125 2.578125 Z M 11.199219 0.738281 L 11.28125 0.753906 L 11.105469 0.792969 Z M 13.609375 2.351562 C 13.597656 2.351562 13.589844 2.351562 13.578125 2.351562 C 13.585938 2.351562 13.589844 2.351562 13.59375 2.347656 C 13.597656 2.347656 13.601562 2.347656 13.609375 2.351562 Z M 13.921875 1.835938 C 13.996094 1.804688 14.117188 1.773438 14.261719 1.738281 C 14.332031 1.722656 14.410156 1.707031 14.488281 1.691406 C 14.566406 1.679688 14.648438 1.667969 14.726562 1.660156 C 14.882812 1.644531 15.035156 1.636719 15.148438 1.640625 C 15.269531 1.652344 15.5 1.742188 15.460938 1.75 C 15.394531 1.769531 15.324219 1.785156 15.25 1.800781 C 15.214844 1.808594 15.175781 1.816406 15.140625 1.824219 L 15.03125 1.851562 C 14.886719 1.886719 14.742188 1.921875 14.609375 1.953125 C 14.507812 1.9375 14.417969 1.9375 14.335938 1.933594 C 14.253906 1.929688 14.183594 1.925781 14.121094 1.921875 C 14 1.917969 13.914062 1.910156 13.867188 1.898438 C 13.820312 1.890625 13.847656 1.863281 13.921875 1.835938 Z M 26.210938 10.792969 C 26.234375 10.902344 26.273438 11.039062 26.300781 11.15625 C 26.328125 11.277344 26.34375 11.382812 26.339844 11.425781 C 26.328125 11.546875 26.265625 11.542969 26.214844 11.570312 C 26.207031 11.472656 26.199219 11.375 26.1875 11.277344 C 26.175781 11.160156 26.15625 11.046875 26.152344 10.949219 C 26.144531 10.847656 26.1875 10.839844 26.210938 10.792969 Z M 5.191406 6.796875 C 5.242188 6.71875 5.289062 6.640625 5.339844 6.5625 C 5.429688 6.429688 5.519531 6.296875 5.617188 6.160156 C 5.71875 6.027344 5.828125 5.890625 5.945312 5.753906 C 6.0625 5.617188 6.191406 5.484375 6.328125 5.339844 C 6.347656 5.324219 6.363281 5.304688 6.382812 5.289062 C 6.398438 5.273438 6.417969 5.253906 6.4375 5.238281 C 6.476562 5.203125 6.511719 5.167969 6.550781 5.136719 C 6.628906 5.066406 6.707031 4.996094 6.789062 4.925781 C 6.902344 4.832031 7.011719 4.75 7.109375 4.671875 C 7.160156 4.632812 7.207031 4.597656 7.25 4.5625 C 7.296875 4.527344 7.34375 4.5 7.386719 4.46875 C 7.558594 4.351562 7.695312 4.257812 7.808594 4.199219 C 7.984375 4.117188 8.089844 4.097656 8.152344 4.152344 C 7.023438 4.863281 6.023438 5.757812 5.191406 6.796875 Z M 4.46875 7.496094 C 4.476562 7.421875 4.488281 7.347656 4.5 7.273438 C 4.605469 7.152344 4.722656 6.996094 4.808594 6.929688 C 4.824219 6.917969 4.828125 6.945312 4.820312 6.988281 C 4.8125 7.027344 4.796875 7.082031 4.773438 7.117188 C 4.691406 7.242188 4.570312 7.367188 4.46875 7.496094 Z M 2.476562 13.078125 C 2.476562 13.011719 2.480469 12.949219 2.484375 12.886719 C 2.488281 12.824219 2.492188 12.761719 2.496094 12.695312 C 2.5 12.632812 2.503906 12.570312 2.507812 12.503906 C 2.511719 12.441406 2.519531 12.375 2.527344 12.3125 C 2.550781 12.144531 2.574219 12 2.605469 11.871094 C 2.617188 11.804688 2.632812 11.746094 2.652344 11.695312 C 2.671875 11.640625 2.6875 11.589844 2.707031 11.542969 C 2.78125 11.363281 2.859375 11.253906 2.949219 11.203125 C 2.960938 11.199219 2.96875 11.191406 2.980469 11.183594 C 2.796875 11.878906 2.675781 12.601562 2.621094 13.339844 C 2.617188 13.34375 2.617188 13.351562 2.613281 13.359375 C 2.59375 13.4375 2.570312 13.515625 2.546875 13.597656 C 2.527344 13.675781 2.507812 13.753906 2.488281 13.832031 C 2.484375 13.769531 2.484375 13.707031 2.480469 13.644531 C 2.476562 13.578125 2.480469 13.515625 2.476562 13.453125 C 2.476562 13.328125 2.476562 13.203125 2.476562 13.078125 Z M 5.375 23.097656 C 5.273438 23.003906 5.167969 22.910156 5.058594 22.808594 C 5.054688 22.800781 5.042969 22.746094 5.035156 22.714844 C 5.082031 22.765625 5.136719 22.8125 5.191406 22.863281 C 5.242188 22.910156 5.296875 22.960938 5.347656 23.007812 C 5.355469 23.019531 5.367188 23.066406 5.375 23.097656 Z M 24.300781 24.300781 C 24.222656 24.367188 24.152344 24.425781 24.089844 24.472656 C 24.027344 24.523438 23.972656 24.5625 23.921875 24.589844 C 23.875 24.621094 23.835938 24.640625 23.800781 24.652344 C 23.667969 24.699219 23.664062 24.617188 23.777344 24.425781 C 23.84375 24.300781 23.976562 24.128906 24.121094 23.941406 C 24.261719 23.757812 24.40625 23.554688 24.53125 23.378906 L 24.238281 23.636719 L 24.082031 23.777344 C 24.027344 23.824219 23.96875 23.867188 23.914062 23.910156 L 23.585938 24.175781 C 23.472656 24.261719 23.355469 24.34375 23.242188 24.425781 C 23.398438 24.183594 23.324219 24.109375 23.316406 23.988281 C 23.316406 23.929688 23.324219 23.851562 23.382812 23.738281 C 23.414062 23.679688 23.457031 23.613281 23.515625 23.535156 C 23.574219 23.453125 23.648438 23.363281 23.738281 23.246094 C 23.890625 23.050781 24.023438 22.871094 24.148438 22.671875 C 24.089844 22.734375 24.027344 22.792969 23.964844 22.851562 C 23.902344 22.910156 23.839844 22.96875 23.777344 23.03125 C 23.691406 23.121094 23.605469 23.214844 23.515625 23.304688 L 23.238281 23.566406 L 23.101562 23.695312 L 22.667969 24.070312 C 22.570312 24.148438 22.46875 24.226562 22.371094 24.304688 L 22.148438 24.480469 L 22.070312 24.535156 C 21.863281 24.683594 21.664062 24.835938 21.449219 24.972656 C 21.34375 25.039062 21.246094 25.117188 21.152344 25.195312 C 21.054688 25.273438 20.960938 25.351562 20.863281 25.421875 C 21.023438 25.378906 21.199219 25.335938 21.347656 25.296875 C 21.527344 25.253906 21.679688 25.230469 21.847656 25.199219 C 21.613281 25.371094 21.359375 25.585938 21.132812 25.695312 C 21.070312 25.726562 21.003906 25.757812 20.933594 25.792969 C 20.863281 25.832031 20.789062 25.867188 20.710938 25.898438 C 20.5625 25.964844 20.40625 26.035156 20.265625 26.09375 C 19.976562 26.203125 19.742188 26.273438 19.710938 26.257812 C 19.460938 26.121094 18.871094 26.351562 18.007812 26.59375 C 17.226562 26.8125 16.425781 26.949219 15.625 27.007812 C 14.820312 27.070312 14.015625 27.058594 13.210938 26.976562 C 12.851562 26.929688 12.539062 26.882812 12.3125 26.804688 C 12.085938 26.730469 11.941406 26.660156 11.914062 26.585938 C 11.890625 26.527344 11.917969 26.46875 11.988281 26.425781 C 12.054688 26.378906 12.171875 26.34375 12.320312 26.328125 C 12.425781 26.3125 12.535156 26.3125 12.652344 26.320312 C 12.773438 26.324219 12.894531 26.335938 13.019531 26.351562 C 13.265625 26.394531 13.527344 26.441406 13.773438 26.519531 C 13.871094 26.550781 13.980469 26.566406 14.09375 26.578125 C 14.203125 26.59375 14.320312 26.597656 14.429688 26.597656 C 14.484375 26.601562 14.539062 26.597656 14.589844 26.589844 C 14.640625 26.585938 14.691406 26.578125 14.738281 26.570312 C 14.832031 26.554688 14.917969 26.53125 14.980469 26.503906 C 15.109375 26.449219 14.890625 26.363281 14.808594 26.292969 C 14.789062 26.277344 14.621094 26.28125 14.570312 26.265625 C 14.507812 26.253906 14.457031 26.234375 14.414062 26.21875 C 14.367188 26.199219 14.335938 26.183594 14.308594 26.167969 C 14.292969 26.160156 14.285156 26.15625 14.273438 26.148438 C 14.351562 26.148438 14.425781 26.148438 14.503906 26.148438 C 21.085938 26.148438 26.417969 20.816406 26.417969 14.234375 C 26.417969 13.324219 26.316406 12.4375 26.125 11.585938 C 26.15625 11.597656 26.1875 11.609375 26.222656 11.632812 C 26.222656 11.625 26.222656 11.617188 26.21875 11.613281 C 26.269531 11.679688 26.324219 11.75 26.375 11.824219 C 26.429688 11.914062 26.484375 12 26.539062 12.085938 C 26.597656 12.171875 26.652344 12.25 26.703125 12.320312 C 26.757812 12.386719 26.804688 12.441406 26.851562 12.476562 C 26.933594 12.539062 27.011719 12.613281 27.085938 12.757812 C 27.164062 12.90625 27.222656 13.128906 27.285156 13.480469 C 27.289062 13.511719 27.296875 13.542969 27.300781 13.570312 C 27.304688 13.601562 27.308594 13.628906 27.3125 13.65625 C 27.320312 13.710938 27.328125 13.757812 27.339844 13.804688 C 27.355469 13.898438 27.371094 13.972656 27.390625 14.035156 C 27.425781 14.160156 27.460938 14.222656 27.496094 14.234375 C 27.5625 14.253906 27.632812 14.054688 27.683594 13.691406 C 27.703125 13.566406 27.714844 13.441406 27.730469 13.316406 C 27.742188 13.195312 27.757812 13.070312 27.769531 12.949219 C 27.777344 12.886719 27.78125 12.824219 27.785156 12.765625 L 27.800781 12.582031 C 27.808594 12.460938 27.816406 12.335938 27.824219 12.214844 C 27.832031 11.96875 27.835938 11.722656 27.835938 11.464844 C 27.828125 11.339844 27.824219 11.210938 27.816406 11.082031 C 27.804688 10.949219 27.800781 10.816406 27.78125 10.683594 C 27.75 10.414062 27.714844 10.132812 27.648438 9.84375 C 27.617188 9.699219 27.589844 9.550781 27.546875 9.398438 C 27.503906 9.25 27.457031 9.097656 27.410156 8.9375 C 27.199219 8.3125 26.902344 7.625 26.449219 6.902344 L 26.46875 6.957031 C 26.4375 6.984375 26.4375 7.066406 26.371094 7.019531 C 26.269531 6.949219 26.121094 6.785156 25.992188 6.664062 C 25.953125 6.515625 25.867188 6.328125 25.867188 6.246094 C 25.871094 6.195312 25.996094 6.304688 26.066406 6.339844 C 26.101562 6.390625 26.136719 6.441406 26.167969 6.492188 L 26.269531 6.648438 L 26.46875 6.957031 C 26.46875 6.957031 26.449219 6.90625 26.449219 6.902344 C 26.335938 6.726562 26.222656 6.550781 26.105469 6.375 C 25.90625 6.121094 25.703125 5.84375 25.496094 5.628906 C 25.421875 5.546875 25.328125 5.484375 25.234375 5.421875 C 25.140625 5.363281 25.042969 5.3125 24.953125 5.246094 C 24.867188 5.179688 24.789062 5.105469 24.730469 5.003906 C 24.671875 4.902344 24.625 4.777344 24.613281 4.605469 C 24.609375 4.582031 24.578125 4.523438 24.527344 4.449219 C 24.5 4.410156 24.46875 4.367188 24.433594 4.320312 C 24.398438 4.273438 24.355469 4.226562 24.3125 4.175781 C 24.226562 4.074219 24.128906 3.964844 24.03125 3.863281 C 23.984375 3.808594 23.933594 3.761719 23.882812 3.714844 C 23.832031 3.667969 23.785156 3.625 23.742188 3.582031 C 22.375 2.359375 20.757812 1.398438 19.011719 0.789062 C 18.136719 0.484375 17.230469 0.265625 16.3125 0.136719 C 15.394531 0.0117188 14.464844 -0.0234375 13.539062 0.03125 C 11.855469 0.121094 10.179688 0.542969 8.632812 1.238281 C 7.089844 1.9375 5.671875 2.914062 4.472656 4.105469 C 4.191406 4.390625 3.957031 4.714844 3.726562 5.035156 C 3.824219 4.960938 3.929688 4.886719 4.03125 4.8125 C 4.132812 4.738281 4.234375 4.679688 4.316406 4.636719 C 4.398438 4.59375 4.390625 4.722656 4.378906 4.734375 C 4.207031 4.910156 4.050781 5.101562 3.886719 5.289062 C 3.847656 5.335938 3.804688 5.382812 3.769531 5.429688 L 3.65625 5.578125 L 3.425781 5.871094 C 3.386719 5.917969 3.351562 5.96875 3.316406 6.019531 L 3.207031 6.167969 L 2.996094 6.472656 L 2.792969 6.785156 L 2.695312 6.941406 C 2.660156 6.992188 2.628906 7.046875 2.597656 7.097656 C 2.089844 7.949219 1.671875 8.851562 1.351562 9.789062 C 1.3125 9.910156 1.253906 10.027344 1.199219 10.144531 C 1.144531 10.261719 1.085938 10.382812 1.035156 10.5 C 1.054688 10.386719 1.070312 10.269531 1.089844 10.152344 L 1.101562 10.066406 C 1.109375 10.035156 1.113281 10.007812 1.121094 9.980469 C 1.136719 9.921875 1.152344 9.863281 1.167969 9.804688 C 1.210938 9.675781 1.257812 9.542969 1.304688 9.414062 C 1.355469 9.28125 1.40625 9.152344 1.460938 9.027344 C 1.5625 8.765625 1.683594 8.523438 1.777344 8.28125 C 1.796875 8.230469 1.816406 8.175781 1.839844 8.125 C 1.859375 8.074219 1.878906 8.023438 1.898438 7.972656 C 1.9375 7.875 1.976562 7.773438 2.011719 7.675781 C 2.078125 7.480469 2.15625 7.292969 2.238281 7.09375 C 2.011719 7.429688 1.792969 7.769531 1.613281 8.136719 C 0.6875 10.082031 0.21875 12.25 0.238281 14.394531 C 0.238281 14.503906 0.242188 14.613281 0.242188 14.722656 L 0.242188 14.96875 L 0.246094 15.050781 C 0.257812 15.269531 0.269531 15.488281 0.285156 15.695312 C 0.3125 15.90625 0.34375 16.105469 0.382812 16.292969 C 0.402344 16.386719 0.429688 16.476562 0.460938 16.5625 C 0.488281 16.652344 0.523438 16.734375 0.558594 16.808594 L 0.527344 16.382812 L 0.519531 15.957031 C 0.507812 15.671875 0.519531 15.390625 0.527344 15.109375 C 0.53125 15.0625 0.53125 15.007812 0.535156 14.957031 C 0.539062 14.910156 0.546875 14.871094 0.554688 14.867188 C 0.609375 14.820312 0.675781 14.703125 0.71875 14.832031 C 0.738281 14.894531 0.769531 15.070312 0.796875 15.234375 C 0.824219 15.398438 0.847656 15.554688 0.84375 15.578125 C 0.816406 15.796875 0.8125 16.042969 0.816406 16.300781 C 0.824219 16.429688 0.835938 16.5625 0.851562 16.699219 C 0.859375 16.769531 0.867188 16.835938 0.875 16.90625 C 0.882812 16.976562 0.894531 17.046875 0.90625 17.117188 C 0.933594 17.257812 0.960938 17.398438 0.988281 17.542969 C 1.003906 17.613281 1.015625 17.6875 1.035156 17.757812 C 1.054688 17.832031 1.070312 17.902344 1.089844 17.976562 C 1.128906 18.121094 1.164062 18.265625 1.207031 18.410156 C 1.25 18.550781 1.292969 18.695312 1.339844 18.835938 C 1.398438 19.046875 1.472656 19.25 1.492188 19.378906 C 1.511719 19.503906 1.488281 19.546875 1.378906 19.425781 C 1.253906 19.285156 1.210938 19.308594 1.230469 19.445312 C 1.238281 19.515625 1.265625 19.613281 1.300781 19.730469 C 1.320312 19.792969 1.34375 19.855469 1.371094 19.925781 C 1.398438 19.992188 1.429688 20.066406 1.464844 20.144531 C 1.59375 20.457031 1.753906 20.761719 1.90625 21.066406 C 2.074219 21.363281 2.238281 21.664062 2.429688 21.949219 L 2.585938 22.191406 C 2.636719 22.269531 2.695312 22.347656 2.75 22.425781 L 2.917969 22.660156 C 2.972656 22.738281 3.027344 22.816406 3.089844 22.890625 L 3.445312 23.339844 L 3.820312 23.773438 C 4.335938 24.339844 4.890625 24.867188 5.484375 25.347656 L 5.9375 25.703125 L 6.40625 26.03125 C 6.484375 26.089844 6.5625 26.140625 6.644531 26.191406 L 6.886719 26.34375 C 6.96875 26.394531 7.046875 26.449219 7.128906 26.496094 L 7.378906 26.640625 L 7.628906 26.78125 C 7.710938 26.828125 7.796875 26.871094 7.882812 26.914062 L 8.140625 27.042969 C 8.222656 27.085938 8.308594 27.132812 8.398438 27.167969 L 8.921875 27.402344 C 9.097656 27.476562 9.277344 27.542969 9.457031 27.613281 C 10.171875 27.878906 10.910156 28.089844 11.660156 28.242188 C 12.414062 28.390625 13.171875 28.472656 13.933594 28.503906 L 14.507812 28.515625 L 15.078125 28.5 L 15.21875 28.496094 C 15.265625 28.492188 15.316406 28.488281 15.363281 28.484375 L 15.933594 28.4375 C 16.027344 28.429688 16.121094 28.414062 16.214844 28.402344 L 16.5 28.367188 C 16.59375 28.355469 16.6875 28.34375 16.78125 28.324219 L 17.347656 28.222656 C 17.71875 28.136719 18.09375 28.054688 18.457031 27.941406 C 20.195312 27.4375 21.832031 26.589844 23.253906 25.480469 C 23.417969 25.347656 23.578125 25.222656 23.71875 25.089844 C 23.859375 24.957031 23.992188 24.835938 24.105469 24.714844 C 24.214844 24.589844 24.308594 24.476562 24.378906 24.371094 C 24.414062 24.316406 24.445312 24.265625 24.472656 24.21875 C 24.492188 24.179688 24.507812 24.140625 24.519531 24.101562 C 24.488281 24.132812 24.457031 24.164062 24.425781 24.195312 C 24.382812 24.230469 24.339844 24.265625 24.300781 24.300781 " fill-opacity="1" fill-rule="nonzero"/></g><path fill="#00b7ed" d="M 24.519531 24.101562 C 24.53125 24.089844 24.542969 24.078125 24.554688 24.066406 C 24.550781 24.070312 24.527344 24.082031 24.527344 24.082031 C 24.523438 24.089844 24.523438 24.097656 24.519531 24.101562 " fill-opacity="1" fill-rule="nonzero"/><g clip-path="url(#94244920e1)"><path fill="#00b7ed" d="M 28.570312 14.683594 C 28.5625 14.550781 28.542969 14.445312 28.519531 14.371094 C 28.476562 14.222656 28.414062 14.191406 28.34375 14.300781 C 28.144531 14.621094 27.949219 14.945312 27.730469 15.183594 C 27.683594 15.230469 27.636719 15.3125 27.589844 15.417969 C 27.566406 15.46875 27.542969 15.527344 27.515625 15.589844 C 27.488281 15.652344 27.460938 15.722656 27.433594 15.796875 C 27.40625 15.871094 27.378906 15.949219 27.351562 16.03125 C 27.324219 16.113281 27.296875 16.199219 27.265625 16.285156 C 27.199219 16.464844 27.136719 16.65625 27.070312 16.855469 C 26.996094 17.054688 26.929688 17.265625 26.855469 17.476562 C 26.816406 17.578125 26.777344 17.6875 26.738281 17.792969 C 26.699219 17.898438 26.667969 18.007812 26.625 18.113281 C 26.460938 18.535156 26.300781 18.957031 26.152344 19.339844 C 26.089844 19.5 26.066406 19.644531 26.023438 19.792969 C 26.085938 19.691406 26.148438 19.585938 26.207031 19.484375 C 26.238281 19.429688 26.269531 19.378906 26.300781 19.324219 C 26.316406 19.296875 26.332031 19.269531 26.347656 19.242188 C 26.359375 19.214844 26.375 19.1875 26.390625 19.160156 C 26.503906 18.921875 26.628906 18.667969 26.726562 18.414062 C 26.703125 18.523438 26.691406 18.632812 26.664062 18.738281 C 26.640625 18.847656 26.613281 18.957031 26.574219 19.074219 C 26.324219 19.796875 26.011719 20.550781 25.59375 21.1875 C 25.511719 21.3125 25.441406 21.421875 25.378906 21.523438 C 25.316406 21.621094 25.257812 21.703125 25.214844 21.777344 C 25.121094 21.925781 25.070312 22.03125 25.046875 22.101562 C 25 22.242188 25.078125 22.257812 25.210938 22.203125 C 25.527344 22.070312 25.667969 22.128906 25.589844 22.441406 C 25.550781 22.597656 25.449219 22.808594 25.289062 23.085938 C 25.203125 23.222656 25.101562 23.371094 24.980469 23.535156 C 24.953125 23.578125 24.921875 23.621094 24.890625 23.664062 C 24.855469 23.707031 24.820312 23.75 24.785156 23.792969 C 24.714844 23.875 24.644531 23.964844 24.566406 24.054688 C 24.703125 23.957031 24.835938 23.855469 24.964844 23.746094 C 25.101562 23.625 25.234375 23.492188 25.355469 23.359375 C 25.386719 23.324219 25.417969 23.289062 25.445312 23.253906 C 25.476562 23.21875 25.503906 23.183594 25.53125 23.144531 C 25.582031 23.074219 25.632812 22.996094 25.683594 22.921875 C 25.730469 22.84375 25.777344 22.765625 25.816406 22.6875 C 25.855469 22.609375 25.890625 22.523438 25.921875 22.441406 C 25.976562 22.28125 26.03125 22.128906 26.074219 21.980469 C 26.113281 21.832031 26.152344 21.683594 26.1875 21.539062 C 26.207031 21.464844 26.226562 21.394531 26.242188 21.320312 C 26.257812 21.242188 26.273438 21.167969 26.292969 21.09375 C 26.324219 20.941406 26.363281 20.785156 26.402344 20.617188 C 26.433594 20.472656 26.472656 20.339844 26.523438 20.207031 C 26.546875 20.140625 26.578125 20.078125 26.605469 20.011719 C 26.636719 19.941406 26.667969 19.875 26.703125 19.804688 C 26.738281 19.738281 26.777344 19.667969 26.824219 19.59375 C 26.84375 19.554688 26.867188 19.519531 26.894531 19.480469 C 26.914062 19.441406 26.941406 19.402344 26.964844 19.359375 C 27.015625 19.277344 27.070312 19.191406 27.128906 19.101562 C 27.1875 19.011719 27.253906 18.914062 27.316406 18.8125 L 27.328125 18.742188 C 27.417969 18.625 27.5 18.535156 27.539062 18.5625 C 27.554688 18.574219 27.5625 18.617188 27.554688 18.699219 C 27.546875 18.742188 27.539062 18.792969 27.527344 18.855469 C 27.511719 18.921875 27.496094 18.996094 27.464844 19.082031 C 27.429688 19.203125 27.390625 19.324219 27.347656 19.445312 C 27.324219 19.507812 27.304688 19.570312 27.28125 19.632812 C 27.257812 19.695312 27.234375 19.753906 27.210938 19.816406 C 27.160156 19.9375 27.109375 20.0625 27.0625 20.183594 C 27.039062 20.242188 27.011719 20.304688 26.984375 20.363281 C 26.960938 20.421875 26.933594 20.480469 26.910156 20.539062 C 26.863281 20.640625 26.90625 20.691406 26.933594 20.722656 C 26.941406 20.734375 27.035156 20.601562 27.078125 20.523438 C 27.929688 18.859375 28.449219 17.019531 28.570312 15.148438 C 28.585938 14.96875 28.582031 14.8125 28.570312 14.683594 " fill-opacity="1" fill-rule="nonzero"/></g><path fill="#00b7ed" d="M 24.554688 24.066406 C 24.558594 24.0625 24.5625 24.058594 24.566406 24.054688 C 24.554688 24.0625 24.542969 24.074219 24.53125 24.082031 C 24.535156 24.078125 24.550781 24.070312 24.554688 24.066406 " fill-opacity="1" fill-rule="nonzero"/><path fill="#00b7ed" d="M 21.691406 23.789062 C 21.277344 24.082031 20.851562 24.371094 20.40625 24.617188 C 20.1875 24.75 19.953125 24.859375 19.730469 24.980469 C 19.617188 25.039062 19.5 25.089844 19.386719 25.148438 C 19.269531 25.199219 19.15625 25.257812 19.039062 25.304688 C 18.902344 25.363281 18.769531 25.421875 18.640625 25.480469 C 18.507812 25.535156 18.378906 25.589844 18.257812 25.644531 C 18.199219 25.671875 18.136719 25.695312 18.082031 25.722656 C 18.023438 25.746094 17.964844 25.769531 17.910156 25.792969 C 17.800781 25.835938 17.699219 25.878906 17.609375 25.921875 C 17.523438 25.960938 17.441406 25.992188 17.378906 26.023438 C 17.3125 26.050781 17.261719 26.074219 17.226562 26.09375 C 17.160156 26.136719 17.15625 26.152344 17.242188 26.140625 C 17.535156 26.105469 17.847656 26.023438 18.167969 25.9375 C 18.324219 25.886719 18.480469 25.835938 18.640625 25.78125 C 18.71875 25.757812 18.796875 25.726562 18.875 25.699219 C 18.953125 25.667969 19.027344 25.640625 19.105469 25.613281 C 19.289062 25.546875 19.464844 25.460938 19.640625 25.378906 L 19.644531 25.386719 C 20.441406 25.019531 21.210938 24.578125 21.890625 24.035156 C 21.988281 23.953125 22.105469 23.828125 22.191406 23.722656 C 22.28125 23.617188 22.328125 23.523438 22.304688 23.515625 C 22.242188 23.492188 21.890625 23.636719 21.691406 23.789062 " fill-opacity="1" fill-rule="nonzero"/><path fill="#00b7ed" d="M 24.210938 21.339844 C 24.167969 21.386719 24.121094 21.4375 24.070312 21.488281 C 23.960938 21.601562 23.847656 21.738281 23.730469 21.878906 C 23.609375 22.015625 23.484375 22.15625 23.371094 22.292969 C 23.273438 22.394531 23.136719 22.605469 23.15625 22.617188 C 23.199219 22.644531 23.296875 22.648438 23.429688 22.539062 C 23.550781 22.449219 23.667969 22.320312 23.800781 22.183594 C 23.832031 22.148438 23.867188 22.113281 23.902344 22.078125 C 23.917969 22.058594 23.9375 22.039062 23.953125 22.023438 C 23.96875 22.003906 23.988281 21.984375 24.003906 21.964844 C 24.070312 21.882812 24.144531 21.804688 24.214844 21.71875 C 24.25 21.65625 24.289062 21.597656 24.320312 21.535156 C 24.355469 21.472656 24.386719 21.410156 24.421875 21.347656 C 24.453125 21.285156 24.488281 21.222656 24.519531 21.160156 C 24.554688 21.09375 24.589844 21.035156 24.617188 20.96875 C 24.574219 21.011719 24.527344 21.054688 24.484375 21.09375 C 24.4375 21.132812 24.394531 21.171875 24.347656 21.214844 C 24.304688 21.253906 24.257812 21.296875 24.210938 21.339844 " fill-opacity="1" fill-rule="nonzero"/><path fill="#00b7ed" d="M 25.765625 18.324219 C 25.707031 18.414062 25.640625 18.515625 25.628906 18.5625 C 25.605469 18.632812 25.585938 18.703125 25.566406 18.769531 C 25.550781 18.839844 25.535156 18.90625 25.515625 18.972656 C 25.476562 19.105469 25.441406 19.234375 25.40625 19.367188 C 25.453125 19.308594 25.503906 19.25 25.558594 19.179688 C 25.589844 19.144531 25.621094 19.105469 25.65625 19.0625 C 25.691406 19.019531 25.730469 18.972656 25.769531 18.917969 C 25.820312 18.609375 25.878906 18.359375 25.875 18.175781 C 25.875 18.160156 25.824219 18.234375 25.765625 18.324219 " fill-opacity="1" fill-rule="nonzero"/><path fill="#00b7ed" d="M 24.464844 23.269531 C 24.453125 23.265625 24.398438 23.3125 24.359375 23.332031 C 24.417969 23.339844 24.476562 23.347656 24.535156 23.351562 C 24.511719 23.324219 24.492188 23.289062 24.464844 23.269531 " fill-opacity="1" fill-rule="nonzero"/><path fill="#00b7ed" d="M 24.535156 23.351562 C 24.539062 23.355469 24.539062 23.355469 24.542969 23.359375 C 24.542969 23.355469 24.546875 23.355469 24.546875 23.355469 C 24.542969 23.363281 24.535156 23.371094 24.53125 23.378906 L 24.558594 23.355469 C 24.550781 23.355469 24.542969 23.351562 24.535156 23.351562 " fill-opacity="1" fill-rule="nonzero"/><path fill="#00b7ed" d="M 27.355469 18.769531 L 27.328125 18.742188 C 27.328125 18.742188 27.320312 18.800781 27.320312 18.804688 C 27.320312 18.800781 27.355469 18.769531 27.355469 18.769531 " fill-opacity="1" fill-rule="nonzero"/><g fill="#ffffff" fill-opacity="1"><g transform="translate(5.70961, 22.18794)"><g><path d="M 5.671875 -17.3125 L 5.671875 -6.953125 C 5.671875 -5.921875 5.925781 -5.125 6.4375 -4.5625 C 6.945312 -4 7.691406 -3.71875 8.671875 -3.71875 C 9.660156 -3.71875 10.414062 -4 10.9375 -4.5625 C 11.46875 -5.125 11.734375 -5.921875 11.734375 -6.953125 L 11.734375 -17.3125 L 15.953125 -17.3125 L 15.953125 -6.984375 C 15.953125 -5.429688 15.625 -4.117188 14.96875 -3.046875 C 14.3125 -1.984375 13.425781 -1.179688 12.3125 -0.640625 C 11.207031 -0.0976562 9.972656 0.171875 8.609375 0.171875 C 7.242188 0.171875 6.019531 -0.09375 4.9375 -0.625 C 3.863281 -1.164062 3.015625 -1.972656 2.390625 -3.046875 C 1.765625 -4.117188 1.453125 -5.429688 1.453125 -6.984375 L 1.453125 -17.3125 Z M 5.671875 -17.3125 "/></g></g></g></g></g></g></svg>